<svg width="31" height="28" viewBox="0 0 31 28" fill="none" xmlns="http://www.w3.org/2000/svg">
<path d="M15.274 0.290039L6.6651 1.20028L0 10.1474L15.274 27.9339L30.5481 10.1474L23.8831 1.20028L15.274 0.290039Z" fill="#111111"/>
<path d="M0 10.1475L15.274 27.9338L6.18669 10.1475H0Z" fill="white" fill-opacity="0.7"/>
<path d="M24.3606 10.1475L15.2734 27.9338L30.5473 10.1475H24.3606Z" fill="white" fill-opacity="0.7"/>
<path d="M6.18555 10.1475L15.2729 27.9338L24.3602 10.1475H6.18555Z" fill="white" fill-opacity="0.8"/>
<path opacity="0.9" d="M6.66395 1.20028L6.18555 10.1474L15.2729 0.290039L6.66395 1.20028Z" fill="white"/>
<path opacity="0.9" d="M24.3606 10.1474L23.8824 1.20016L15.2734 0.290039L24.3606 10.1474Z" fill="white"/>
<path d="M24.3612 10.1474H30.5477L23.8828 1.2002L24.3612 10.1474Z" fill="white" fill-opacity="0.8"/>
<path d="M0 10.1474H6.18669L6.6651 1.2002L0 10.1474Z" fill="white" fill-opacity="0.8"/>
<path d="M15.2729 0.290039L6.18555 10.1474H24.3602L15.2729 0.290039Z" fill="white"/>
</svg>
