<svg width="32" height="32" viewBox="0 0 32 32" fill="none" xmlns="http://www.w3.org/2000/svg">
<path d="M0.548828 6.21869C0.548828 3.39851 2.83503 1.1123 5.65521 1.1123H26.2122C29.0324 1.1123 31.3186 3.39851 31.3186 6.21869V26.0059C31.3186 28.8261 29.0324 31.1123 26.2122 31.1123H5.65521C2.83503 31.1123 0.548828 28.8261 0.548828 26.0059V6.21869Z" stroke="white"/>
<path d="M21.5618 12.5017C21.5618 12.3848 21.6055 12.3263 21.7367 12.3263H24.0236C24.14 12.3263 24.1983 12.3702 24.1983 12.5017V24.0332C24.1983 24.15 24.1692 24.2086 24.0236 24.2086H21.7658C21.6201 24.2086 21.5764 24.1355 21.5764 24.0186V12.5017H21.5618ZM21.4016 9.1841C21.4016 8.24868 22.0571 7.69336 22.8875 7.69336C23.776 7.69336 24.3732 8.29253 24.3732 9.1841C24.3732 10.1486 23.7469 10.6748 22.8583 10.6748C22.0134 10.6748 21.4016 10.1486 21.4016 9.1841ZM14.8467 17.3101C14.4389 15.6878 13.4775 12.151 13.1133 10.441H13.0842C12.7782 12.151 12.0062 15.0448 11.3945 17.3101H14.8467ZM10.7972 19.6778L9.64641 24.0624C9.6173 24.1793 9.57358 24.2085 9.42792 24.2085H7.28669C7.14103 24.2085 7.11186 24.1646 7.14103 23.9893L11.2779 9.4617C11.3507 9.19866 11.3944 8.96485 11.4236 8.24868C11.4236 8.14642 11.4672 8.10257 11.54 8.10257H14.599C14.701 8.10257 14.7447 8.13181 14.7739 8.24868L19.406 24.0185C19.4351 24.1354 19.406 24.2085 19.2894 24.2085H16.8714C16.7549 24.2085 16.682 24.1793 16.6529 24.0771L15.4584 19.6778H10.7972Z" fill="white"/>
</svg>
