<svg width="20" height="31" viewBox="0 0 20 31" fill="none" xmlns="http://www.w3.org/2000/svg">
<path d="M4.99996 30.1113C7.75996 30.1113 9.9999 27.8713 9.9999 25.1113V20.1113H4.99996C2.23998 20.1113 0 22.3513 0 25.1113C0 27.8713 2.23998 30.1113 4.99996 30.1113Z" fill="white"/>
<path d="M0 15.1122C0 12.3522 2.23998 10.1123 4.99996 10.1123H9.9999V20.1122H4.99996C2.23998 20.1122 0 17.8722 0 15.1122Z" fill="white"/>
<path d="M0 5.11227C0 2.35229 2.23998 0.112305 4.99996 0.112305H9.9999V10.1122H4.99996C2.23998 10.1122 0 7.87227 0 5.11227Z" fill="white"/>
<path opacity="0.8" d="M10 0.112305H14.9999C17.7599 0.112305 19.9999 2.35229 19.9999 5.11227C19.9999 7.87227 17.7599 10.1122 14.9999 10.1122H10V0.112305Z" fill="white"/>
<path opacity="0.8" d="M19.9999 15.1122C19.9999 17.8722 17.7599 20.1122 14.9999 20.1122C12.24 20.1122 10 17.8722 10 15.1122C10 12.3522 12.24 10.1123 14.9999 10.1123C17.7599 10.1123 19.9999 12.3522 19.9999 15.1122Z" fill="white"/>
</svg>
