<svg width="33" height="32" viewBox="0 0 33 32" fill="none" xmlns="http://www.w3.org/2000/svg">
<path d="M1.31836 6.14459C1.31836 3.30331 3.62167 1 6.46295 1H27.1738C30.0151 1 32.3184 3.30331 32.3184 6.14459V26.0799C32.3184 28.9212 30.0151 31.2245 27.1738 31.2245H6.46294C3.62167 31.2245 1.31836 28.9212 1.31836 26.0799V6.14459Z" stroke="white"/>
<path d="M22.7996 13.9477C21.6402 13.9477 21.244 14.5367 21.244 15.0226C21.244 15.5527 21.5082 15.9208 23.0638 16.7307C25.3678 17.8497 26.0869 18.9246 26.0869 20.5002C26.0869 22.8561 24.2965 24.1224 21.875 24.1224C20.5983 24.1224 19.4976 23.8573 18.8666 23.4892C18.7639 23.4451 18.7492 23.3715 18.7492 23.2536V21.0891C18.7492 20.9419 18.8226 20.8977 18.9253 20.9714C19.8499 21.5751 20.9065 21.8401 21.875 21.8401C23.0344 21.8401 23.5187 21.3542 23.5187 20.6916C23.5187 20.1615 23.1812 19.6903 21.6989 18.9246C19.615 17.9234 18.7492 16.9074 18.7492 15.214C18.7492 13.3145 20.2314 11.7391 22.7996 11.7391C24.0617 11.7391 24.9423 11.9305 25.4265 12.1513C25.5439 12.225 25.5732 12.3427 25.5732 12.4458V14.463C25.5732 14.5808 25.4999 14.6544 25.3531 14.6103C24.7074 14.1981 23.7535 13.9477 22.7996 13.9477ZM10.1786 15.7C10.5162 15.7294 10.7804 15.7294 11.3674 15.7294C13.0845 15.7294 14.6987 15.1257 14.6987 12.7845C14.6987 10.9145 13.5393 9.9721 11.5875 9.9721C11.0005 9.9721 10.4428 10.0015 10.1786 10.0163V15.7ZM7.56647 7.88121C7.56647 7.77812 7.77193 7.70449 7.88929 7.70449C8.82857 7.66031 10.2228 7.63086 11.6756 7.63086C15.7407 7.63086 17.3256 9.86895 17.3256 12.7255C17.3256 16.4656 14.6253 18.0706 11.3087 18.0706C10.751 18.0706 10.5603 18.0411 10.164 18.0411V23.6954C10.164 23.8132 10.1199 23.8721 9.9879 23.8721H7.74254C7.62518 23.8721 7.56641 23.8279 7.56641 23.6954L7.56647 7.88121Z" fill="white"/>
</svg>
