<svg width="32" height="32" viewBox="0 0 32 32" fill="none" xmlns="http://www.w3.org/2000/svg">
<path d="M1.31836 6.46594C1.31836 3.71631 3.54737 1.4873 6.29699 1.4873H26.3397C29.0894 1.4873 31.3184 3.71631 31.3184 6.46594V25.7581C31.3184 28.5078 29.0894 30.7368 26.3397 30.7368H6.29699C3.54736 30.7368 1.31836 28.5078 1.31836 25.7581V6.46594Z" stroke="white"/>
<path d="M23.5745 15.9832C24.2987 15.9832 24.5544 15.9832 24.6254 15.9547C24.6254 15.8549 24.6538 15.7837 24.6538 15.7124C24.6538 14.9429 24.2845 13.518 22.8075 13.518C21.4441 13.518 20.8618 14.7149 20.7198 15.9832H23.5745ZM20.6914 17.9353C20.7198 19.8591 21.6288 21.1557 23.7875 21.1557C24.6254 21.1557 25.3497 21.0419 26.1025 20.7141C26.2019 20.6713 26.2729 20.6856 26.2729 20.8138V22.595C26.2729 22.7374 26.2303 22.8088 26.1309 22.88C25.3782 23.2504 24.4408 23.4215 23.2763 23.4215C19.527 23.4215 18.1209 20.6428 18.1209 17.5507C18.1209 14.1878 19.8537 11.4376 22.9071 11.4376C26.0032 11.4376 27.0825 14.0453 27.0825 16.1685C27.0825 16.8525 27.0399 17.4082 26.9689 17.679C26.9405 17.793 26.8979 17.8357 26.7842 17.8642C26.5002 17.907 25.6622 17.9639 24.4125 17.9639H20.6914V17.9353ZM13.0792 16.4819C12.6815 14.9001 11.7157 11.4518 11.3607 9.7846H11.3322C11.0341 11.4518 10.2529 14.2732 9.67062 16.4819H13.0792ZM9.08831 18.7903L7.96637 23.051C7.938 23.1649 7.89537 23.2077 7.75329 23.2077H5.66559C5.52359 23.2077 5.49514 23.165 5.52359 22.994L9.55699 8.84414C9.62799 8.58768 9.67056 8.38816 9.69894 7.67572C9.69894 7.57596 9.74157 7.5332 9.81258 7.5332H12.795C12.8944 7.5332 12.937 7.56171 12.9655 7.67572L17.4817 23.0225C17.5101 23.1364 17.4817 23.2077 17.3681 23.2077H15.0248C14.9112 23.2077 14.8401 23.165 14.8117 23.0653L13.6471 18.7904L9.08831 18.7903Z" fill="white"/>
</svg>
