<svg width="150" height="150" viewBox="0 0 150 150" fill="none" xmlns="http://www.w3.org/2000/svg">
<path d="M75 38.6719C85.3553 38.6719 93.75 30.2772 93.75 19.9219C93.75 9.56653 85.3553 1.17188 75 1.17188C64.6447 1.17188 56.25 9.56653 56.25 19.9219C56.25 30.2772 64.6447 38.6719 75 38.6719Z" stroke="white" stroke-width="3" stroke-miterlimit="10" stroke-linecap="round" stroke-linejoin="round"/>
<path d="M87.8906 9.14063L89.2969 7.96875C85.7812 3.75 80.625 1.17188 75 1.17188C64.6875 1.17188 56.25 9.60937 56.25 19.9219H58.125C68.9062 19.9219 79.6875 16.1719 87.8906 9.14063Z" stroke="white" stroke-width="3" stroke-miterlimit="10" stroke-linecap="round" stroke-linejoin="round"/>
<path d="M75 38.6719C72.4219 38.6719 70.0781 38.2031 67.9688 37.2656V41.0156L75 51.5625L82.0312 41.0156V37.2656C79.9219 38.2031 77.5781 38.6719 75 38.6719Z" stroke="white" stroke-width="3" stroke-miterlimit="10" stroke-linecap="round" stroke-linejoin="round"/>
<path d="M91.4062 64.4531V80.8594" stroke="white" stroke-width="3" stroke-miterlimit="10" stroke-linecap="round" stroke-linejoin="round"/>
<path d="M58.5938 64.4531V80.8594" stroke="white" stroke-width="3" stroke-miterlimit="10" stroke-linecap="round" stroke-linejoin="round"/>
<path d="M80.8594 79.6875L75 85.5469L69.1406 79.6875L72.6562 51.5625H77.3438L80.8594 79.6875Z" stroke="white" stroke-width="3" stroke-miterlimit="10" stroke-linecap="round" stroke-linejoin="round"/>
<path d="M67.9688 41.0156L66.7969 51.5625H83.2031L82.0312 41.0156L75 51.5625L67.9688 41.0156Z" stroke="white" stroke-width="3" stroke-miterlimit="10" stroke-linecap="round" stroke-linejoin="round"/>
<path d="M103.125 67.7344V57.8906C103.125 53.2031 100.312 48.9844 96.0938 47.1094L82.0312 40.7812L75 51.5625L67.9688 41.0156L53.9062 47.3438C49.6875 49.2188 46.875 53.4375 46.875 58.125V67.7344" stroke="white" stroke-width="3" stroke-miterlimit="10" stroke-linecap="round" stroke-linejoin="round"/>
<path d="M29.2969 101.953C39.6522 101.953 48.0469 93.5585 48.0469 83.2031C48.0469 72.8478 39.6522 64.4531 29.2969 64.4531C18.9415 64.4531 10.5469 72.8478 10.5469 83.2031C10.5469 93.5585 18.9415 101.953 29.2969 101.953Z" stroke="white" stroke-width="3" stroke-miterlimit="10" stroke-linecap="round" stroke-linejoin="round"/>
<path d="M42.1875 72.4219L43.5938 71.25C40.0781 67.0312 34.9219 64.4531 29.2969 64.4531C18.9844 64.4531 10.5469 72.8906 10.5469 83.2031H12.4219C23.2031 83.2031 33.9844 79.4531 42.1875 72.4219Z" stroke="white" stroke-width="3" stroke-miterlimit="10" stroke-linecap="round" stroke-linejoin="round"/>
<path d="M29.2969 101.953C26.7187 101.953 24.375 101.484 22.2656 100.547V104.297L29.2969 114.844L36.3281 104.297V100.547C34.2188 101.484 31.875 101.953 29.2969 101.953Z" stroke="white" stroke-width="3" stroke-miterlimit="10" stroke-linecap="round" stroke-linejoin="round"/>
<path d="M45.7031 127.734V144.141" stroke="white" stroke-width="3" stroke-miterlimit="10" stroke-linecap="round" stroke-linejoin="round"/>
<path d="M12.8906 127.734V144.141" stroke="white" stroke-width="3" stroke-miterlimit="10" stroke-linecap="round" stroke-linejoin="round"/>
<path d="M35.1562 142.969L29.2969 148.828L23.4375 142.969L26.9531 114.844H31.6406L35.1562 142.969Z" stroke="white" stroke-width="3" stroke-miterlimit="10" stroke-linecap="round" stroke-linejoin="round"/>
<path d="M22.2656 104.297L21.0938 114.844H37.5L36.3281 104.297L29.2969 114.844L22.2656 104.297Z" stroke="white" stroke-width="3" stroke-miterlimit="10" stroke-linecap="round" stroke-linejoin="round"/>
<path d="M57.4219 144.141V121.172C57.4219 116.484 54.6094 112.266 50.3906 110.391L36.3281 104.062L29.2969 114.609L22.2656 104.062L8.20312 110.391C3.98438 112.266 1.17188 116.484 1.17188 121.172V144.141" stroke="white" stroke-width="3" stroke-miterlimit="10" stroke-linecap="round" stroke-linejoin="round"/>
<path d="M120.703 101.953C131.058 101.953 139.453 93.5585 139.453 83.2031C139.453 72.8478 131.058 64.4531 120.703 64.4531C110.348 64.4531 101.953 72.8478 101.953 83.2031C101.953 93.5585 110.348 101.953 120.703 101.953Z" stroke="white" stroke-width="3" stroke-miterlimit="10" stroke-linecap="round" stroke-linejoin="round"/>
<path d="M133.594 72.4219L135 71.25C131.484 67.0312 126.328 64.4531 120.703 64.4531C110.391 64.4531 101.953 72.8906 101.953 83.2031H103.828C114.609 83.2031 125.391 79.4531 133.594 72.4219Z" stroke="white" stroke-width="3" stroke-miterlimit="10" stroke-linecap="round" stroke-linejoin="round"/>
<path d="M120.703 101.953C118.125 101.953 115.781 101.484 113.672 100.547V104.297L120.703 114.844L127.734 104.297V100.547C125.625 101.484 123.281 101.953 120.703 101.953Z" stroke="white" stroke-width="3" stroke-miterlimit="10" stroke-linecap="round" stroke-linejoin="round"/>
<path d="M137.109 127.734V144.141" stroke="white" stroke-width="3" stroke-miterlimit="10" stroke-linecap="round" stroke-linejoin="round"/>
<path d="M104.297 127.734V144.141" stroke="white" stroke-width="3" stroke-miterlimit="10" stroke-linecap="round" stroke-linejoin="round"/>
<path d="M126.562 142.969L120.703 148.828L114.844 142.969L118.359 114.844H123.047L126.562 142.969Z" stroke="white" stroke-width="3" stroke-miterlimit="10" stroke-linecap="round" stroke-linejoin="round"/>
<path d="M113.672 104.297L112.5 114.844H128.906L127.734 104.297L120.703 114.844L113.672 104.297Z" stroke="white" stroke-width="3" stroke-miterlimit="10" stroke-linecap="round" stroke-linejoin="round"/>
<path d="M148.828 144.141V121.172C148.828 116.484 146.016 112.266 141.797 110.391L127.734 104.062L120.703 114.609L113.672 104.062L99.6094 110.391C95.3906 112.266 92.5781 116.484 92.5781 121.172V144.141" stroke="white" stroke-width="3" stroke-miterlimit="10" stroke-linecap="round" stroke-linejoin="round"/>
<path d="M75 91.4062V105.469" stroke="white" stroke-width="3" stroke-miterlimit="10" stroke-linecap="round" stroke-linejoin="round"/>
<path d="M61.875 113.906L75 105.469L88.125 113.906" stroke="white" stroke-width="3" stroke-miterlimit="10" stroke-linecap="round" stroke-linejoin="round"/>
</svg>
