<svg width="150" height="150" viewBox="0 0 150 150" fill="none" xmlns="http://www.w3.org/2000/svg">
<path d="M67.2222 137C101.587 137 129.444 109.466 129.444 75.5C129.444 41.5345 101.587 14 67.2222 14C32.8578 14 5 41.5345 5 75.5C5 109.466 32.8578 137 67.2222 137Z" stroke="white" stroke-width="6" stroke-miterlimit="10" stroke-linecap="round" stroke-linejoin="round"/>
<path d="M67.2223 116.5C90.1319 116.5 108.704 98.1437 108.704 75.5C108.704 52.8563 90.1319 34.5 67.2223 34.5C44.3127 34.5 25.7408 52.8563 25.7408 75.5C25.7408 98.1437 44.3127 116.5 67.2223 116.5Z" stroke="white" stroke-width="6" stroke-miterlimit="10" stroke-linecap="round" stroke-linejoin="round"/>
<path d="M67.2223 96.0005C78.6771 96.0005 87.963 86.8223 87.963 75.5005C87.963 64.1786 78.6771 55.0005 67.2223 55.0005C55.7675 55.0005 46.4815 64.1786 46.4815 75.5005C46.4815 86.8223 55.7675 96.0005 67.2223 96.0005Z" stroke="white" stroke-width="6" stroke-miterlimit="10" stroke-linecap="round" stroke-linejoin="round"/>
<path d="M67.7478 75.5H118.514" stroke="white" stroke-width="6" stroke-miterlimit="10" stroke-linecap="round" stroke-linejoin="round"/>
<path d="M145 85.7498H124.259L119.074 75.4998L124.259 65.2498H145L139.815 75.4998L145 85.7498Z" stroke="white" stroke-width="6" stroke-miterlimit="10" stroke-linecap="round" stroke-linejoin="round"/>
</svg>
