<svg width="38" height="40" viewBox="0 0 38 40" fill="none" xmlns="http://www.w3.org/2000/svg">
<path d="M30.0836 13.6667V12.0834C30.0836 5.97325 25.112 1 19.0003 1C12.8886 1 7.91699 5.97325 7.91699 12.0833V13.6666C5.29818 13.6666 3.16699 15.7978 3.16699 18.4166V34.25C3.16699 36.8688 5.29818 39 7.91699 39H30.0837C32.7025 39 34.8337 36.8688 34.8337 34.25V18.4167C34.8336 15.7978 32.7025 13.6667 30.0836 13.6667ZM11.0836 12.0833C11.0836 7.71806 14.6351 4.16662 19.0003 4.16662C23.3656 4.16662 26.917 7.71806 26.917 12.0833V13.6666H11.0836V12.0833ZM31.667 34.25C31.667 35.124 30.9561 35.8333 30.0837 35.8333H7.91699C7.04455 35.8333 6.33368 35.124 6.33368 34.25V18.4167C6.33368 17.5427 7.04463 16.8334 7.91699 16.8334H30.0837C30.9561 16.8334 31.667 17.5427 31.667 18.4167V34.25Z" fill="white"/>
<g clip-path="url(#clip0_1328_1251)">
<path d="M15.4844 27.7961V28.5362C15.4844 29.7606 16.4306 30.7566 17.5938 30.7566H18.2969V32.6316H19.7031V30.7566H20.2332C21.4918 30.7566 22.5156 29.6789 22.5156 28.354C22.5156 27.2493 21.8046 26.2908 20.7866 26.0231L19.7031 25.7379V23.3553H20.4062C20.7939 23.3553 21.1094 23.6874 21.1094 24.0954V24.8355H22.5156V24.0954C22.5156 22.871 21.5694 21.875 20.4062 21.875H19.7031V20H18.2969V21.875H17.7668C16.5082 21.875 15.4844 22.9527 15.4844 24.2775C15.4844 25.3823 16.1954 26.3407 17.2134 26.6085L18.2969 26.8937V29.2763H17.5938C17.2061 29.2763 16.8906 28.9442 16.8906 28.5362V27.7961H15.4844ZM19.7031 27.2638L20.4454 27.4592C20.8364 27.5619 21.1094 27.9297 21.1094 28.354C21.1094 28.8625 20.7163 29.2763 20.2332 29.2763H19.7031V27.2638ZM17.5546 25.1723C17.1636 25.0697 16.8906 24.7018 16.8906 24.2775C16.8906 23.769 17.2837 23.3552 17.7668 23.3552H18.2969V25.3677L17.5546 25.1723Z" fill="white"/>
</g>
<defs>
<clipPath id="clip0_1328_1251">
<rect width="12" height="12.6316" fill="white" transform="translate(13 20)"/>
</clipPath>
</defs>
</svg>
