<svg width="50" height="50" viewBox="0 0 50 50" fill="none" xmlns="http://www.w3.org/2000/svg">
<path d="M13 37.0252V43.6126C13 44.9389 14.0667 46 15.4 46H34.6C35.9333 46 37 44.9389 37 43.6126V37.0252H13ZM24.9999 43.5684C23.8444 43.5684 22.911 42.64 22.911 41.4905C22.911 40.3411 23.8444 39.4126 24.9999 39.4126C26.1556 39.4126 27.0888 40.3411 27.0888 41.4905C27.0888 42.64 26.1556 43.5684 24.9999 43.5684Z" fill="white"/>
<path d="M37 35.257V12.6654H13V35.257H37ZM30.6889 27.2991L25.8889 29.5096V23.0991L30.6889 20.9328V27.2991ZM24.9999 17.3075L29.6667 19.4296L24.9999 21.596L20.3333 19.4739L24.9999 17.3075ZM24.1111 23.0991V29.4655L19.3111 27.2991V20.9328L24.1111 23.0991Z" fill="white"/>
<path d="M37 10.9411V6.3874C37 5.06104 35.9333 4 34.6 4H15.4C14.0667 4 13 5.06104 13 6.3874V10.8968H37V10.9411ZM22.2 6.56422H27.7111C28.1556 6.56422 28.5556 6.96208 28.5556 7.40423C28.5556 7.89053 28.1556 8.24423 27.7111 8.24423H22.2C21.7555 8.24423 21.3555 7.84631 21.3555 7.40423C21.3555 6.96208 21.7555 6.56422 22.2 6.56422Z" fill="white"/>
</svg>
