<svg width="40" height="40" viewBox="0 0 40 40" fill="none" xmlns="http://www.w3.org/2000/svg">
<path d="M30.1562 17.9687C31.0192 17.9687 31.7187 17.2692 31.7187 16.4062C31.7187 15.5433 31.0192 14.8438 30.1562 14.8438C29.2933 14.8438 28.5938 15.5433 28.5938 16.4062C28.5938 17.2692 29.2933 17.9687 30.1562 17.9687Z" fill="white"/>
<path d="M33.7498 3.12499H31.7186V1.56249C31.7186 0.699528 31.0191 0 30.1561 0C29.2931 0 28.5936 0.699528 28.5936 1.56249V3.12499H21.4843V1.56249C21.4843 0.699528 20.7847 0 19.9218 0C19.0588 0 18.3593 0.699528 18.3593 1.56249V3.12499H11.3281V1.56249C11.3281 0.699528 10.6285 0 9.76558 0C8.90261 0 8.20309 0.699528 8.20309 1.56249V3.12499H6.24997C2.80374 3.12499 0 5.92872 0 9.37496V33.7498C0 37.1961 2.80374 39.9998 6.24997 39.9998H18.203C19.066 39.9998 19.7655 39.3003 19.7655 38.4373C19.7655 37.5744 19.066 36.8748 18.203 36.8748H6.24997C4.52685 36.8748 3.12499 35.473 3.12499 33.7498V9.37496C3.12499 7.65184 4.52685 6.24997 6.24997 6.24997H8.20309V7.81246C8.20309 8.67543 8.90261 9.37496 9.76558 9.37496C10.6285 9.37496 11.3281 8.67543 11.3281 7.81246V6.24997H18.3593V7.81246C18.3593 8.67543 19.0588 9.37496 19.9218 9.37496C20.7847 9.37496 21.4843 8.67543 21.4843 7.81246V6.24997H28.5936V7.81246C28.5936 8.67543 29.2931 9.37496 30.1561 9.37496C31.0191 9.37496 31.7186 8.67543 31.7186 7.81246V6.24997H33.7498C35.473 6.24997 36.8748 7.65184 36.8748 9.37496V18.2812C36.8748 19.1441 37.5744 19.8437 38.4373 19.8437C39.3003 19.8437 39.9998 19.1441 39.9998 18.2812V9.37496C39.9998 5.92872 37.1961 3.12499 33.7498 3.12499Z" fill="white"/>
<path d="M30.5468 21.0938C25.3344 21.0938 21.0938 25.3344 21.0938 30.5468C21.0938 35.7593 25.3344 39.9999 30.5468 39.9999C35.7593 39.9999 39.9999 35.7593 39.9999 30.5468C39.9999 25.3344 35.7593 21.0938 30.5468 21.0938ZM30.5468 36.8749C27.0575 36.8749 24.2187 34.0362 24.2187 30.5468C24.2187 27.0575 27.0575 24.2187 30.5468 24.2187C34.0361 24.2187 36.8749 27.0575 36.8749 30.5468C36.8749 34.0362 34.0361 36.8749 30.5468 36.8749Z" fill="white"/>
<path d="M32.8125 28.9844H32.1094V27.3437C32.1094 26.4808 31.4098 25.7812 30.5469 25.7812C29.6839 25.7812 28.9844 26.4808 28.9844 27.3437V30.5469C28.9844 31.4098 29.6839 32.1093 30.5469 32.1093H32.8125C33.6754 32.1093 34.375 31.4098 34.375 30.5469C34.375 29.6839 33.6754 28.9844 32.8125 28.9844Z" fill="white"/>
<path d="M23.3594 17.9687C24.2223 17.9687 24.9219 17.2692 24.9219 16.4062C24.9219 15.5433 24.2223 14.8438 23.3594 14.8438C22.4964 14.8438 21.7969 15.5433 21.7969 16.4062C21.7969 17.2692 22.4964 17.9687 23.3594 17.9687Z" fill="white"/>
<path d="M16.5625 24.7656C17.4254 24.7656 18.125 24.0661 18.125 23.2031C18.125 22.3402 17.4254 21.6406 16.5625 21.6406C15.6996 21.6406 15 22.3402 15 23.2031C15 24.0661 15.6996 24.7656 16.5625 24.7656Z" fill="white"/>
<path d="M9.76562 17.9687C10.6286 17.9687 11.3281 17.2692 11.3281 16.4062C11.3281 15.5433 10.6286 14.8438 9.76562 14.8438C8.90268 14.8438 8.20312 15.5433 8.20312 16.4062C8.20312 17.2692 8.90268 17.9687 9.76562 17.9687Z" fill="white"/>
<path d="M9.76562 24.7656C10.6286 24.7656 11.3281 24.0661 11.3281 23.2031C11.3281 22.3402 10.6286 21.6406 9.76562 21.6406C8.90268 21.6406 8.20312 22.3402 8.20312 23.2031C8.20312 24.0661 8.90268 24.7656 9.76562 24.7656Z" fill="white"/>
<path d="M9.76562 31.5625C10.6286 31.5625 11.3281 30.8629 11.3281 30C11.3281 29.1371 10.6286 28.4375 9.76562 28.4375C8.90268 28.4375 8.20312 29.1371 8.20312 30C8.20312 30.8629 8.90268 31.5625 9.76562 31.5625Z" fill="white"/>
<path d="M16.5625 31.5625C17.4254 31.5625 18.125 30.8629 18.125 30C18.125 29.1371 17.4254 28.4375 16.5625 28.4375C15.6996 28.4375 15 29.1371 15 30C15 30.8629 15.6996 31.5625 16.5625 31.5625Z" fill="white"/>
<path d="M16.5625 17.9687C17.4254 17.9687 18.125 17.2692 18.125 16.4062C18.125 15.5433 17.4254 14.8438 16.5625 14.8438C15.6996 14.8438 15 15.5433 15 16.4062C15 17.2692 15.6996 17.9687 16.5625 17.9687Z" fill="white"/>
</svg>
