<svg width="44" height="44" viewBox="0 0 44 44" fill="none" xmlns="http://www.w3.org/2000/svg">
<path d="M23.1 35.1437V31.8998C24.9194 31.8998 26.4 30.4192 26.4 28.5998C26.4 26.7804 24.9194 25.2998 23.1 25.2998V23.0998H26.4C26.6918 23.0998 26.9716 22.9839 27.1778 22.7776C27.3841 22.5713 27.5 22.2915 27.5 21.9998V20.8998C27.5127 20.6165 27.6341 20.3491 27.839 20.1532C28.0439 19.9572 28.3165 19.8479 28.6 19.8479C28.8835 19.8479 29.1561 19.9572 29.361 20.1532C29.5659 20.3491 29.6874 20.6165 29.7 20.8998V21.9998C29.7 22.2915 29.8159 22.5713 30.0222 22.7776C30.2285 22.9839 30.5083 23.0998 30.8 23.0998H35.1439C34.6126 29.5007 29.5009 34.6124 23.1 35.1437Z" fill="white"/>
<path d="M35.1439 20.8998H31.9C31.9 19.0804 30.4194 17.5998 28.6 17.5998C26.7806 17.5998 25.3 19.0804 25.3 20.8998H23.1V17.5998C23.1 17.308 22.9841 17.0282 22.7778 16.8219C22.5716 16.6157 22.2918 16.4998 22 16.4998H20.9C20.6168 16.4871 20.3494 16.3657 20.1534 16.1608C19.9575 15.9559 19.8481 15.6833 19.8481 15.3998C19.8481 15.1162 19.9575 14.8437 20.1534 14.6388C20.3494 14.4339 20.6168 14.3124 20.9 14.2998H22C22.2918 14.2998 22.5716 14.1839 22.7778 13.9776C22.9841 13.7713 23.1 13.4915 23.1 13.1998V8.85586C29.5009 9.38716 34.6126 14.4989 35.1439 20.8998Z" fill="white"/>
<path d="M20.9 8.85586V12.0998C19.0806 12.0998 17.6 13.5804 17.6 15.3998C17.6 17.2192 19.0806 18.6998 20.9 18.6998V20.8998H17.6C17.3083 20.8998 17.0285 21.0157 16.8222 21.2219C16.6159 21.4282 16.5 21.708 16.5 21.9998V23.0998C16.4874 23.383 16.3659 23.6504 16.161 23.8464C15.9561 24.0423 15.6835 24.1517 15.4 24.1517C15.1165 24.1517 14.8439 24.0423 14.639 23.8464C14.4341 23.6504 14.3127 23.383 14.3 23.0998V21.9998C14.3 21.708 14.1841 21.4282 13.9778 21.2219C13.7716 21.0157 13.4918 20.8998 13.2 20.8998H8.85613C9.38743 14.4989 14.4991 9.38716 20.9 8.85586Z" fill="white"/>
<path d="M8.85613 23.0998H12.1C12.1 24.9192 13.5806 26.3998 15.4 26.3998C17.2194 26.3998 18.7 24.9192 18.7 23.0998H20.9V26.3998C20.9 26.6915 21.0159 26.9713 21.2222 27.1776C21.4285 27.3839 21.7083 27.4998 22 27.4998H23.1C23.3833 27.5124 23.6507 27.6339 23.8466 27.8388C24.0426 28.0437 24.1519 28.3162 24.1519 28.5998C24.1519 28.8833 24.0426 29.1559 23.8466 29.3608C23.6507 29.5657 23.3833 29.6871 23.1 29.6998H22C21.7083 29.6998 21.4285 29.8157 21.2222 30.0219C21.0159 30.2282 20.9 30.508 20.9 30.7998V35.1437C14.4991 34.6124 9.38743 29.5007 8.85613 23.0998Z" fill="white"/>
<path fill-rule="evenodd" clip-rule="evenodd" d="M39.9102 16.1579C40.1258 16.8201 40.7165 17.2854 41.4128 17.2854H44V26.7135H41.4139C40.7176 26.7135 40.1269 27.1788 39.9113 27.841C39.6077 28.7727 39.2348 29.6725 38.797 30.5338C38.4813 31.1542 38.5693 31.9011 39.0621 32.3939L40.8903 34.2221L34.2232 40.8892L32.395 39.061C31.9022 38.5693 31.1564 38.4802 30.5349 38.7959C29.6675 39.2365 28.7672 39.6091 27.8421 39.9102C27.1799 40.1258 26.7146 40.7165 26.7146 41.4128V44H17.2865V41.4139C17.2865 40.7176 16.8212 40.1269 16.159 39.9113C15.2273 39.6077 14.3275 39.2348 13.4662 38.797C12.8458 38.4813 12.0989 38.5693 11.6061 39.0621L9.7779 40.8903L3.1108 34.2232L4.939 32.395C5.4307 31.9022 5.5198 31.1553 5.2041 30.5349C4.7663 29.6736 4.3934 28.7738 4.0898 27.8421C3.8742 27.1799 3.2835 26.7146 2.5872 26.7146H0V17.2865H2.5861C3.2824 17.2865 3.8731 16.8212 4.0887 16.159C4.38985 15.2339 4.7624 14.3336 5.203 13.4662C5.5187 12.8458 5.4307 12.0989 4.9379 11.6061L3.1097 9.7779L9.7768 3.1108L11.605 4.939C12.0978 5.4307 12.8447 5.5198 13.4651 5.2041C14.3264 4.7663 15.2262 4.3934 16.1579 4.0898C16.8201 3.8742 17.2854 3.2835 17.2854 2.5872V0H26.7135V2.5861C26.7135 3.2824 27.1788 3.8731 27.841 4.0887C28.7661 4.38985 29.6664 4.7624 30.5338 5.203C31.1542 5.5187 31.9011 5.4307 32.3939 4.9379L34.2221 3.1097L40.8892 9.7768L39.061 11.605C38.5693 12.0978 38.4802 12.8447 38.7959 13.4651C39.2365 14.3325 39.6091 15.2328 39.9102 16.1579ZM22 6.6C30.492 6.6 37.4 13.508 37.4 22C37.4 30.492 30.492 37.4 22 37.4C13.508 37.4 6.6 30.492 6.6 22C6.6 13.508 13.508 6.6 22 6.6Z" fill="white"/>
</svg>
