<svg width="40" height="40" viewBox="0 0 40 40" fill="none" xmlns="http://www.w3.org/2000/svg">
<path d="M20.0009 25.0018C21.99 25.0018 23.8977 25.792 25.3042 27.1985C26.7107 28.605 27.5009 30.5127 27.5009 32.5018C27.5009 32.8333 27.3692 33.1513 27.1348 33.3857C26.9003 33.6201 26.5824 33.7518 26.2509 33.7518H13.7509C13.4194 33.7518 13.1015 33.6201 12.8671 33.3857C12.6326 33.1513 12.5009 32.8333 12.5009 32.5018C12.5009 30.5127 13.2911 28.605 14.6976 27.1985C16.1041 25.792 18.0118 25.0018 20.0009 25.0018ZM18.8486 15.0019H21.1532C21.6585 15.0019 22.1589 14.9024 22.6257 14.709C23.0925 14.5156 23.5167 14.2322 23.8739 13.8749C24.2312 13.5177 24.5146 13.0935 24.708 12.6267C24.9014 12.1599 25.0009 11.6595 25.0009 11.1542C25.0009 10.8486 24.8795 10.5555 24.6634 10.3394C24.4473 10.1233 24.1542 10.0019 23.8486 10.0019H16.1533C15.8476 10.0019 15.5545 10.1233 15.3384 10.3394C15.1223 10.5555 15.0009 10.8486 15.0009 11.1542C15.0009 11.6595 15.1004 12.1599 15.2938 12.6267C15.4872 13.0935 15.7706 13.5177 16.1279 13.8749C16.4852 14.2322 16.9093 14.5156 17.3761 14.709C17.8429 14.9024 18.3433 15.0019 18.8486 15.0019ZM35.0008 36.2518C35.0009 36.416 34.9687 36.5786 34.9059 36.7303C34.8431 36.882 34.751 37.0198 34.6349 37.1359C34.5188 37.252 34.381 37.344 34.2293 37.4068C34.0776 37.4696 33.915 37.5019 33.7508 37.5018H6.25097C5.91945 37.5018 5.60151 37.3701 5.36709 37.1357C5.13267 36.9013 5.00098 36.5833 5.00098 36.2518C5.00098 35.9203 5.13267 35.6023 5.36709 35.3679C5.60151 35.1335 5.91945 35.0018 6.25097 35.0018H8.75096V33.0023C8.75096 27.6971 11.2216 23.3648 15.1999 21.695C15.5371 21.5585 15.8259 21.3245 16.0293 21.0228C16.2326 20.7212 16.3413 20.3657 16.3413 20.0019C16.3413 19.6381 16.2326 19.2826 16.0293 18.9809C15.8259 18.6792 15.5371 18.4452 15.1999 18.3087C11.2216 16.6388 8.75096 12.3066 8.75096 7.00144V5.00194H6.25097C5.91945 5.00194 5.60151 4.87025 5.36709 4.63583C5.13267 4.40141 5.00098 4.08347 5.00098 3.75195C5.00098 3.42043 5.13267 3.10249 5.36709 2.86807C5.60151 2.63365 5.91945 2.50195 6.25097 2.50195H33.7508C34.0824 2.50195 34.4003 2.63365 34.6347 2.86807C34.8691 3.10249 35.0008 3.42043 35.0008 3.75195C35.0008 4.08347 34.8691 4.40141 34.6347 4.63583C34.4003 4.87025 34.0824 5.00194 33.7508 5.00194H31.2509V7.00144C31.2509 12.3066 28.7802 16.6389 24.8019 18.3088C24.4647 18.4452 24.1759 18.6793 23.9725 18.9809C23.7692 19.2826 23.6605 19.6381 23.6605 20.0019C23.6605 20.3657 23.7692 20.7212 23.9725 21.0228C24.1759 21.3245 24.4647 21.5585 24.8019 21.695C28.7802 23.3649 31.2509 27.6971 31.2509 33.0023V35.0018H33.7508C33.915 35.0017 34.0776 35.034 34.2293 35.0968C34.381 35.1595 34.5188 35.2516 34.6349 35.3677C34.751 35.4838 34.8431 35.6216 34.9059 35.7733C34.9687 35.925 35.0009 36.0876 35.0008 36.2518ZM28.7509 35.0018V33.0023C28.7509 28.7225 26.8673 25.2728 23.8351 23.9997C23.0436 23.6729 22.367 23.1185 21.8909 22.4068C21.4147 21.6951 21.1606 20.8581 21.1606 20.0019C21.1606 19.1456 21.4147 18.3086 21.8909 17.5969C22.367 16.8852 23.0436 16.3309 23.8351 16.0041C26.8673 14.7309 28.7509 11.2812 28.7509 7.00144V5.00194H11.2509V7.00144C11.2509 11.2812 13.1345 14.7309 16.1667 16.0041C16.9582 16.3309 17.6348 16.8852 18.111 17.5969C18.5871 18.3086 18.8412 19.1456 18.8412 20.0019C18.8412 20.8581 18.5871 21.6951 18.111 22.4068C17.6348 23.1185 16.9582 23.6729 16.1667 23.9997C13.1345 25.2728 11.2509 28.7225 11.2509 33.0023V35.0018H28.7509Z" fill="white"/>
</svg>
