<svg width="50" height="50" viewBox="0 0 50 50" fill="none" xmlns="http://www.w3.org/2000/svg">
<path d="M30.0244 33.92C30.4031 33.92 30.71 33.613 30.71 33.2344C30.71 32.8558 30.4031 32.5488 30.0244 32.5488C29.6458 32.5488 29.3389 32.8558 29.3389 33.2344C29.3389 33.613 29.6458 33.92 30.0244 33.92Z" fill="white"/>
<path d="M44.8102 4H5.18977C3.98233 4 3 4.98233 3 6.18977V28.8958H47V6.18977C47 4.98233 46.0177 4 44.8102 4ZM15.7293 18.213C15.7293 19.8195 14.3479 21.1293 12.6493 21.1293C10.9507 21.1293 9.5693 19.8195 9.5693 18.213V12.3498C9.5693 12.0633 9.80465 11.8279 10.0912 11.8279C10.3777 11.8279 10.613 12.0633 10.613 12.3498V18.213C10.613 19.2465 11.5237 20.0856 12.6493 20.0856C13.7749 20.0856 14.6856 19.2465 14.6856 18.213V12.3498C14.6856 12.0633 14.9209 11.8279 15.2074 11.8279C15.494 11.8279 15.7293 12.0633 15.7293 12.3498V18.213ZM22.626 20.3619C22.7591 20.6177 22.667 20.9349 22.4112 21.0679C22.3293 21.1088 22.2474 21.1293 22.1656 21.1293C21.9814 21.1293 21.7972 21.027 21.7051 20.853L19.9247 17.5479L18.1442 20.853C18.0521 21.027 17.8679 21.1293 17.6837 21.1293C17.6019 21.1293 17.52 21.1088 17.4381 21.0679C17.1823 20.9349 17.0902 20.6177 17.2233 20.3619L19.3312 16.453L17.2233 12.534C17.0902 12.2781 17.1823 11.9609 17.4381 11.8279C17.694 11.6949 18.0112 11.787 18.1442 12.0428L19.9247 15.3479L21.7051 12.0428C21.8381 11.787 22.1553 11.6949 22.4112 11.8279C22.667 11.9609 22.7591 12.2781 22.626 12.534L20.5181 16.4428L22.626 20.3619ZM29.7581 9.99628L24.8363 23.2679C24.7544 23.4726 24.56 23.6056 24.3451 23.6056C24.2837 23.6056 24.2223 23.5954 24.1609 23.5749C23.8949 23.4726 23.7516 23.1758 23.854 22.8995L28.7758 9.62791C28.8781 9.36186 29.1749 9.21861 29.4512 9.32093C29.7172 9.42326 29.8605 9.72 29.7581 9.99628ZM37.0949 18.213C37.0949 19.8195 35.7135 21.1293 34.0149 21.1293C32.3163 21.1293 30.9349 19.8195 30.9349 18.213V12.3498C30.9349 12.0633 31.1702 11.8279 31.4567 11.8279C31.7433 11.8279 31.9786 12.0633 31.9786 12.3498V18.213C31.9786 19.2465 32.8893 20.0856 34.0149 20.0856C35.1405 20.0856 36.0512 19.2465 36.0512 18.213V12.3498C36.0512 12.0633 36.2865 11.8279 36.573 11.8279C36.8595 11.8279 37.0949 12.0633 37.0949 12.3498V18.213ZM39.9088 21.6921C39.6223 21.6921 39.387 21.4567 39.387 21.1702V11.7256C39.387 11.4391 39.6223 11.2037 39.9088 11.2037C40.0521 11.2037 40.1851 11.2651 40.2772 11.3572C40.3693 11.4493 40.4307 11.5823 40.4307 11.7256V21.1702C40.4307 21.4567 40.1953 21.6921 39.9088 21.6921ZM3 29.9395V34.3293C3 35.5367 3.98233 36.5191 5.18977 36.5191H44.8C46.0074 36.5191 46.9898 35.5367 46.9898 34.3293V29.9395H3ZM19.9758 34.9535C19.0242 34.9535 18.2465 34.1758 18.2465 33.2242C18.2465 32.2726 19.0242 31.4949 19.9758 31.4949C20.9274 31.4949 21.7051 32.2726 21.7051 33.2242C21.7051 34.1758 20.9172 34.9535 19.9758 34.9535ZM25 34.9535C24.0484 34.9535 23.2707 34.1758 23.2707 33.2242C23.2707 32.2726 24.0484 31.4949 25 31.4949C25.9516 31.4949 26.7293 32.2726 26.7293 33.2242C26.7293 34.1758 25.9516 34.9535 25 34.9535ZM30.0242 34.9535C29.0726 34.9535 28.2949 34.1758 28.2949 33.2242C28.2949 32.2726 29.0726 31.4949 30.0242 31.4949C30.9758 31.4949 31.7535 32.2726 31.7535 33.2242C31.7535 34.1758 30.9758 34.9535 30.0242 34.9535Z" fill="white"/>
<path d="M25.4768 33.7057C25.7445 33.438 25.7445 33.0039 25.4768 32.7362C25.2091 32.4684 24.775 32.4684 24.5072 32.7362C24.2395 33.0039 24.2395 33.438 24.5072 33.7057C24.775 33.9735 25.2091 33.9735 25.4768 33.7057Z" fill="white"/>
<path d="M20.448 33.7106C20.7157 33.4429 20.7157 33.0088 20.448 32.7411C20.1803 32.4733 19.7462 32.4733 19.4784 32.7411C19.2107 33.0088 19.2107 33.4429 19.4784 33.7106C19.7462 33.9783 20.1803 33.9783 20.448 33.7106Z" fill="white"/>
<path d="M17.438 37.5627H32.8073V41.3386H17.438V37.5627ZM37.4938 43.7023C37.4938 44.439 36.9003 45.0325 36.1635 45.0325H13.8361C13.0993 45.0325 12.5059 44.439 12.5059 43.7023C12.5059 42.9655 13.0993 42.372 13.8361 42.372H36.1738C36.9003 42.372 37.4938 42.9758 37.4938 43.7023Z" fill="white"/>
</svg>
