<svg width="100" height="100" viewBox="0 0 100 100" fill="none" xmlns="http://www.w3.org/2000/svg">
<path d="M49.6364 21.9785H49.6306C48.7291 21.9861 48.0013 22.7212 48 23.625C47.998 24.5283 48.7234 25.2646 49.6262 25.276H49.6319C50.5334 25.2678 51.2613 24.5333 51.2632 23.6295C51.2645 22.7256 50.539 21.9893 49.6364 21.9785Z" fill="white"/>
<path d="M10 78.3257C10.0038 82.0101 12.9867 84.996 16.6667 85.0003H83.3333C87.0133 84.996 89.9962 82.0101 90 78.3257V34.8408H10V78.3257ZM58.115 51.2696C57.5196 50.7626 57.4488 49.8688 57.9552 49.2729C58.4608 48.678 59.3536 48.606 59.9488 49.1135L69.0985 56.9145C69.4141 57.1844 69.5959 57.5782 69.5959 57.9935C69.5959 58.408 69.4141 58.8025 69.0985 59.0711L59.9488 66.872C59.3536 67.3796 58.4608 67.3075 57.9552 66.7128C57.4488 66.1174 57.5196 65.2243 58.115 64.7167L66 57.9935L58.115 51.2696ZM45.375 71.3534L51.0783 44.2441C51.2386 43.4787 51.9892 42.9888 52.7531 43.15C53.5176 43.3111 54.0063 44.0628 53.8453 44.8274L48.1427 71.9375C47.9811 72.7029 47.2317 73.192 46.4671 73.0309C45.7032 72.8697 45.214 72.1188 45.375 71.3534ZM30.9015 56.9145L40.0512 49.1135C40.6464 48.606 41.5392 48.678 42.0448 49.2729C42.5512 49.8688 42.4804 50.7626 41.885 51.2696L34 57.9935L41.8864 64.7167C42.4804 65.2243 42.5517 66.1174 42.0455 66.7128C41.5397 67.3075 40.6464 67.3796 40.0517 66.872L30.9021 59.0711C30.5864 58.8025 30.4046 58.408 30.4046 57.9935C30.4046 57.5782 30.5864 57.1844 30.9021 56.9145H30.9015Z" fill="white"/>
<path d="M49.6105 21.9346H49.6048C48.7127 21.9573 48.0006 22.6874 48 23.5811C47.9987 24.4742 48.7077 25.2061 49.5997 25.2314H49.6048C50.4968 25.2087 51.2083 24.4786 51.2102 23.5862C51.2108 22.6924 50.5013 21.9605 49.6098 21.9346H49.6105Z" fill="white"/>
<path d="M83.3333 15H16.6667C12.9867 15.0038 10.0038 17.9903 10 21.6746V32.0089H90V21.6746C89.9962 17.9903 87.0133 15.0038 83.3333 15ZM17.5833 28.0218H17.5694C15.0953 28.018 13.0928 26.0074 13.0947 23.5304C13.0966 21.0533 15.1023 19.0465 17.5764 19.0465C20.0511 19.0465 22.0575 21.0533 22.0587 23.5304C22.0612 26.0074 20.0581 28.018 17.5833 28.0218ZM35.8087 23.598C35.7986 26.0662 33.798 28.0623 31.3333 28.0648H31.3194C28.8769 28.0212 26.9204 26.0239 26.9249 23.5778C26.928 21.1323 28.8902 19.1413 31.3327 19.1053H31.3478C33.8182 19.1154 35.8137 21.126 35.8087 23.5993V23.598ZM49.5587 23.6416C49.5512 26.1098 47.5505 28.1072 45.0846 28.1078H45.0708C42.6105 28.0882 40.6281 26.0839 40.6313 23.6201C40.6351 21.157 42.625 19.159 45.0852 19.147H45.0985C47.5695 19.1571 49.565 21.1677 49.5593 23.6416H49.5587Z" fill="white"/>
<path d="M49.6181 21.8926H49.6124C48.7178 21.9103 48.0013 22.6416 48 23.5378C47.9981 24.4347 48.7121 25.168 49.608 25.1894H49.6124C50.5082 25.1705 51.2241 24.4398 51.226 23.5429C51.2273 22.6466 50.5133 21.9134 49.6181 21.8926Z" fill="white"/>
</svg>
